# xmcd
#
# Track frame offsets: 
#        150
#        26277
#        51946
#        82988
#        111904
#        134323
#        167869
#        188618
#        216594
#        258593
#        281637
#        310533
#
# Disc length: 4471 seconds
#
# Revision: 3
# Processed by: cddbd v1.5.2PL0 Copyright (c) Steve Scherf et al.
# Submitted via: ExactAudioCopyFreeDBPlugin 1.0
#
DISCID=a711750c
DTITLE=DŻEM - Muza
DYEAR=2010
DGENRE=Blues
TTITLE0=Koniecznie
TTITLE1=Partyzant
TTITLE2=Ani dużo, ani mało
TTITLE3=Bujam się
TTITLE4=Wolności dni
TTITLE5=To wszystko co mam
TTITLE6=Do przodu
TTITLE7=Za to, że żyje
TTITLE8=Leci muza
TTITLE9=Nie patrz tak na mnie
TTITLE10=Strach
TTITLE11=Szara mgła
EXTD=
EXTT0=
EXTT1=
EXTT2=
EXTT3=
EXTT4=
EXTT5=
EXTT6=
EXTT7=
EXTT8=
EXTT9=
EXTT10=
EXTT11=
PLAYORDER=
